PathFileType	4	(X/Y/Z)	Walk10.trc
DataRate	CameraRate	NumFrames	NumMarkers	Units	OrigDataRate	OrigDataStartFrame	OrigNumFrames
200.000000	200.000000	9	59	mm	200.000000	338	520
Frame#	Times		LFHD		RFHD		CLAV		RACR1		RUA1		RFA1		LACR1		LUA1		LFA1		LWRU		RTH1		RTH3		LTH2		LWRR		RWRR		LCAR		RElbow		RBack		RTB3		RCAR		LTH3		RTB1		LLFC		RWRU		RTB4		T10		RASI		C7		LTH4		LBHD		LASI		STRN		RBHD		RPSI		LTB2		LTH1		RTH2		LTB4		LToe		LTB1		LElbowM		LMMAL		RTH4		LElbow		RToe		LTB3		LCAL		LMT1		RElbowM		LMT5		RMT1		RTB2		LPSI		LLMAL		RLFC		RMT5		RCAL		RLMAL		RMMAL
			X1	Y1	Z1	X2	Y2	Z2	X3	Y3	Z3	X4	Y4	Z4	X5	Y5	Z5	X6	Y6	Z6	X7	Y7	Z7	X8	Y8	Z8	X9	Y9	Z9	X10	Y10	Z10	X11	Y11	Z11	X12	Y12	Z12	X13	Y13	Z13	X14	Y14	Z14	X15	Y15	Z15	X16	Y16	Z16	X17	Y17	Z17	X18	Y18	Z18	X19	Y19	Z19	X20	Y20	Z20	X21	Y21	Z21	X22	Y22	Z22	X23	Y23	Z23	X24	Y24	Z24	X25	Y25	Z25	X26	Y26	Z26	X27	Y27	Z27	X28	Y28	Z28	X29	Y29	Z29	X30	Y30	Z30	X31	Y31	Z31	X32	Y32	Z32	X33	Y33	Z33	X34	Y34	Z34	X35	Y35	Z35	X36	Y36	Z36	X37	Y37	Z37	X38	Y38	Z38	X39	Y39	Z39	X40	Y40	Z40	X41	Y41	Z41	X42	Y42	Z42	X43	Y43	Z43	X44	Y44	Z44	X45	Y45	Z45	X46	Y46	Z46	X47	Y47	Z47	X48	Y48	Z48	X49	Y49	Z49	X50	Y50	Z50	X51	Y51	Z51	X52	Y52	Z52	X53	Y53	Z53	X54	Y54	Z54	X55	Y55	Z55	X56	Y56	Z56	X57	Y57	Z57	X58	Y58	Z58	X59	Y59	Z59

338	1.69	-3.2773	1440.9	-55.656	-12.898	1429.1	39.892	-28.653	1189.2	-20.862	-115.8	1216.6	151.1	-119.03	1079.2	236.32	-57.698	839.13	288.88	-86.422	1216.4	-215.45	-52.318	1055.5	-285.33	14.256	861.36	-330.62	38.294	753.76	-351.97	-86.856	644.14	195.3	-14.499	493.56	142.99	-75.566	567.92	-177.18	74.683	768.57	-302.81	-33.025	739.25	261.78	92.985	727.48	-350.95	-122.22	951.59	269.63	-226.75	1151.5	77.648	-1.0327	139.63	61.233	-22.199	688.34	319.17	-136.18	479.73	-175.08	28.061	305.54	79.907	-126.47	385.32	-135.05	-74.698	740.33	320.48	9.3881	221.97	70.373	-254.64	1073.6	-31.115	-51.358	836.98	149.22	-169.64	1272.5	-34.444	-127.58	562.12	-204.69	-128.2	1361.3	-87.594	-54.78	815.86	-178.13	22.423	1083.4	-6.7846	-140.55	1353.5	44.526	-302.98	852.55	32.307	-176.3	204.46	-121.16	-119.72	645.97	-225.39	-0.82888	596.85	158.45	-162.59	202.86	-60.43	-77.687	27.74	-51.442	-131.74	285.12	-65.806	-104.25	907.06	-250.9	-232.14	73.096	-10.815	-51.313	566.75	172.51	-70.104	937.04	-312.05	103.46	62.62	69.577	-186.13	122.67	-55.834	-297.68	49.492	-48.588	-132.85	31.538	-26.227	-166.85	916.86	196.32	-174.24	20.735	-113.26	58.875	53.003	30.442	-25.679	223.43	120.36	-306.02	857.64	-72.613	-250.44	59.793	-91.156	-17.265	408.82	127.89	31.324	35.579	113.54	-107.06	49.695	44.127	-53.099	75.321	93.808	-37.175	88.439	12.887
339	1.695	2.7359	1440.4	-55.035	-6.8885	1428.6	40.506	-22.664	1188.7	-20.409	-110.05	1215.9	151.5	-113.43	1078.5	236.65	-52.134	838.65	289.74	-80.151	1216	-215.04	-46.533	1055.3	-285.4	21.637	861.63	-330.15	46.895	754.3	-350.95	-80.635	643.67	195.8	-8.9015	493.08	142.69	-71.151	567.05	-176.9	82.809	769.57	-301.62	-27.233	738.78	262.77	101.81	728.6	-349.56	-116.7	951	270.16	-220.92	1150.8	77.791	15.117	139.54	61.7	-16.519	687.97	320.26	-132.3	479.24	-174.87	37.384	306.6	79.887	-123.36	384.63	-134.9	-69.079	739.86	321.33	22.132	222.28	70.584	-248.62	1073.1	-31.048	-45.553	836.67	149.66	-163.59	1272.1	-34.089	-123.18	561.59	-204.43	-122.17	1360.8	-87.04	-48.82	814.78	-177.65	28.398	1082.7	-6.4941	-134.54	1352.9	45.071	-296.9	851.82	32.928	-174.78	204.1	-121.01	-114.81	645.42	-225.08	5.1758	596.23	158.59	-161.08	202.37	-60.281	-77.58	27.666	-51.514	-129.51	284.37	-65.64	-97.456	906.53	-250.85	-231.83	73.259	-10.611	-45.366	566.27	172.6	-63.619	936.68	-312.05	122.71	66.925	70.177	-185.36	122.4	-55.718	-297.55	50.079	-48.422	-132.77	31.516	-26.184	-161.08	916.13	196.79	-174.26	20.742	-113.17	78.567	55.429	31.1	-12.928	222.43	120.6	-300.15	857.07	-71.934	-250.22	60.101	-91.036	-11.485	408.24	127.65	51.812	36.879	114.25	-87.249	45.216	44.816	-34.218	73.138	94.424	-18.9	86.857	13.456
340	1.7	8.7479	1439.9	-54.398	-0.87214	1428	41.135	-16.669	1188.2	-19.947	-104.3	1215.1	151.91	-107.84	1077.7	237	-46.55	838.11	290.62	-73.884	1215.6	-214.62	-40.725	1055	-285.44	28.975	861.86	-329.66	55.429	754.82	-349.91	-74.426	643.13	196.33	-3.5092	492.42	142.52	-66.745	566.18	-176.66	90.864	770.54	-300.42	-21.4	738.26	263.77	110.55	729.68	-348.15	-111.16	950.36	270.69	-215.09	1150.2	77.957	30.962	139.71	62.162	-10.802	687.57	321.35	-128.42	478.75	-174.66	46.466	307.66	79.886	-120.21	383.93	-134.77	-63.433	739.33	322.17	34.612	222.73	70.8	-242.6	1072.6	-30.952	-39.654	836.28	150.06	-157.54	1271.5	-33.715	-118.79	561.06	-204.18	-116.15	1360.3	-86.463	-42.833	813.68	-177.16	34.391	1082	-6.2789	-128.51	1352.3	45.64	-290.76	851.06	33.661	-173.26	203.76	-120.87	-109.93	644.87	-224.77	11.094	595.41	158.76	-159.55	201.9	-60.144	-77.479	27.594	-51.594	-127.23	283.62	-65.491	-90.674	905.98	-250.77	-231.51	73.46	-10.412	-39.536	565.67	172.78	-57.153	936.29	-312.02	141.46	71.453	70.73	-184.56	122.16	-55.613	-297.41	50.725	-48.248	-132.69	31.498	-26.147	-155.3	915.35	197.27	-174.29	20.746	-113.06	97.807	58.153	31.715	-0.40962	221.59	120.84	-294.28	856.51	-71.157	-250.01	60.451	-90.914	-5.9072	407.55	127.45	71.879	38.5	114.91	-67.659	41.195	45.456	-15.614	71.333	94.997	-0.90112	85.636	13.995
341	1.705	14.76	1439.4	-53.748	5.152	1427.4	41.778	-10.668	1187.6	-19.478	-98.543	1214.3	152.35	-102.24	1077	237.36	-40.945	837.53	291.51	-67.627	1215.2	-214.18	-34.887	1054.8	-285.44	36.266	862.07	-329.15	63.886	755.31	-348.84	-68.239	642.51	196.89	1.6886	491.58	142.49	-62.343	565.3	-176.48	98.843	771.48	-299.2	-15.528	737.71	264.77	119.19	730.72	-346.73	-105.61	949.68	271.23	-209.25	1149.5	78.15	46.449	140.12	62.608	-5.0487	687.12	322.43	-124.53	478.26	-174.46	55.309	308.72	79.895	-117.01	383.22	-134.66	-57.762	738.76	323.01	46.803	223.3	71.013	-236.57	1072	-30.823	-33.657	835.82	150.42	-151.5	1271	-33.317	-114.43	560.53	-203.93	-110.14	1359.8	-85.862	-36.82	812.56	-176.67	40.405	1081.3	-6.1313	-122.49	1351.7	46.233	-284.58	850.27	34.502	-171.7	203.43	-120.75	-105.1	644.33	-224.47	16.927	594.41	158.98	-157.99	201.43	-60.022	-77.381	27.525	-51.683	-124.91	282.86	-65.36	-83.912	905.42	-250.65	-231.15	73.701	-10.222	-33.821	564.94	173.04	-50.707	935.87	-311.96	159.65	76.148	71.227	-183.75	121.94	-55.521	-297.27	51.438	-48.066	-132.61	31.485	-26.115	-149.48	914.53	197.75	-174.33	20.748	-112.95	116.53	61.133	32.28	11.851	220.9	121.06	-288.4	855.97	-70.29	-249.79	60.85	-90.789	-0.50752	406.76	127.31	91.451	40.403	115.51	-48.377	37.638	46.038	2.6361	69.894	95.518	16.748	84.762	14.496
342	1.71	20.773	1438.8	-53.084	11.185	1426.7	42.434	-4.6603	1187	-18.999	-92.778	1213.5	152.81	-96.641	1076.2	237.74	-35.315	836.91	292.4	-61.381	1214.8	-213.73	-29.014	1054.5	-285.41	43.508	862.24	-328.61	72.261	755.77	-347.76	-62.078	641.81	197.47	6.7045	490.56	142.61	-57.933	564.44	-176.34	106.74	772.37	-297.98	-9.6202	737.12	265.77	127.74	731.72	-345.3	-100.04	948.95	271.77	-203.4	1148.7	78.375	61.526	140.74	63.03	0.73892	686.64	323.52	-120.62	477.77	-174.28	63.914	309.77	79.905	-113.73	382.5	-134.57	-52.064	738.14	323.83	58.68	223.97	71.213	-230.53	1071.4	-30.658	-27.561	835.27	150.73	-145.46	1270.4	-32.895	-110.06	559.99	-203.7	-104.13	1359.2	-85.239	-30.783	811.43	-176.17	46.441	1080.5	-6.0417	-116.45	1351	46.85	-278.35	849.48	35.446	-170.12	203.12	-120.63	-100.29	643.78	-224.17	22.673	593.23	159.24	-156.38	200.98	-59.918	-77.287	27.457	-51.78	-122.52	282.09	-65.252	-77.179	904.83	-250.51	-230.76	73.987	-10.044	-28.216	564.1	173.39	-44.279	935.44	-311.86	177.22	80.945	71.663	-182.91	121.75	-55.444	-297.12	52.226	-47.875	-132.52	31.477	-26.089	-143.64	913.67	198.24	-174.37	20.75	-112.83	134.67	64.315	32.786	23.828	220.36	121.27	-282.52	855.46	-69.338	-249.57	61.303	-90.662	4.7416	405.87	127.2	110.45	42.539	116.04	-29.5	34.538	46.553	20.453	68.804	95.978	33.973	84.216	14.951
343	1.715	26.789	1438.3	-52.407	17.226	1426.1	43.103	1.355	1186.4	-18.509	-87.001	1212.7	153.3	-91.029	1075.3	238.14	-29.657	836.26	293.29	-55.149	1214.3	-213.25	-23.1	1054.2	-285.33	50.697	862.39	-328.05	80.545	756.2	-346.65	-55.95	641.04	198.08	11.553	489.38	142.89	-53.506	563.58	-176.25	114.56	773.23	-296.75	-3.6779	736.5	266.76	136.18	732.68	-343.86	-94.434	948.2	272.33	-197.53	1147.9	78.636	76.141	141.55	63.418	6.5596	686.13	324.59	-116.68	477.28	-174.11	72.285	310.8	79.907	-110.38	381.78	-134.51	-46.34	737.48	324.64	70.218	224.73	71.39	-224.48	1070.8	-30.45	-21.364	834.64	151	-139.43	1269.8	-32.445	-105.7	559.47	-203.49	-98.121	1358.7	-84.594	-24.724	810.31	-175.69	52.499	1079.8	-5.9996	-110.41	1350.3	47.49	-272.07	848.7	36.485	-168.5	202.83	-120.53	-95.496	643.25	-223.88	28.335	591.88	159.55	-154.73	200.55	-59.836	-77.193	27.39	-51.884	-120.06	281.32	-65.168	-70.482	904.24	-250.34	-230.34	74.324	-9.88	-22.718	563.15	173.85	-37.87	934.99	-311.74	194.13	85.769	72.03	-182.05	121.59	-55.382	-296.96	53.098	-47.679	-132.44	31.473	-26.068	-137.77	912.78	198.74	-174.43	20.752	-112.7	152.17	67.635	33.228	35.495	219.96	121.45	-276.63	854.98	-68.308	-249.34	61.818	-90.535	9.8697	404.9	127.14	128.8	44.853	116.5	-11.126	31.882	46.996	37.756	68.038	96.371	50.699	83.968	15.352
344	1.72	32.808	1437.7	-51.717	23.277	1425.4	43.786	7.3782	1185.8	-18.008	-81.209	1211.8	153.81	-85.404	1074.5	238.55	-23.969	835.58	294.18	-48.933	1213.8	-212.76	-17.143	1053.8	-285.2	57.83	862.52	-327.46	88.732	756.6	-345.53	-49.861	640.21	198.7	16.252	488.05	143.31	-49.05	562.74	-176.21	122.3	774.05	-295.51	2.2972	735.85	267.74	144.52	733.6	-342.42	-88.803	947.41	272.88	-191.66	1147.1	78.936	90.245	142.5	63.762	12.412	685.58	325.64	-112.68	476.79	-173.96	80.426	311.78	79.893	-106.92	381.05	-134.47	-40.59	736.78	325.44	81.393	225.55	71.535	-218.42	1070.1	-30.197	-15.067	833.92	151.22	-133.4	1269.2	-31.965	-101.31	558.94	-203.29	-92.118	1358.1	-83.928	-18.645	809.2	-175.23	58.58	1079	-5.9935	-104.37	1349.7	48.151	-265.75	847.92	37.614	-166.83	202.58	-120.45	-90.715	642.72	-223.6	33.915	590.37	159.91	-153.02	200.13	-59.778	-77.1	27.324	-51.994	-117.52	280.53	-65.113	-63.829	903.65	-250.15	-229.87	74.717	-9.7337	-17.32	562.09	174.41	-31.48	934.53	-311.58	210.33	90.542	72.325	-181.14	121.48	-55.338	-296.79	54.064	-47.478	-132.35	31.476	-26.053	-131.86	911.87	199.23	-174.48	20.757	-112.57	168.96	71.022	33.599	46.825	219.68	121.6	-270.72	854.55	-67.21	-249.1	62.4	-90.408	14.909	403.87	127.11	146.44	47.281	116.88	6.6494	29.647	47.363	54.466	67.56	96.695	66.849	83.98	15.695
345	1.725	38.831	1437	-51.016	29.338	1424.7	44.482	13.41	1185.1	-17.494	-75.401	1211	154.34	-79.764	1073.6	238.99	-18.249	834.87	295.06	-42.738	1213.3	-212.24	-11.139	1053.5	-285.01	64.903	862.62	-326.84	96.818	756.97	-344.4	-43.813	639.32	199.33	20.82	486.58	143.89	-44.551	561.92	-176.19	129.94	774.82	-294.28	8.3032	735.18	268.71	152.74	734.47	-340.97	-83.139	946.61	273.44	-185.76	1146.3	79.279	103.79	143.55	64.052	18.295	685.01	326.68	-108.62	476.3	-173.82	88.342	312.71	79.853	-103.35	380.32	-134.46	-34.812	736.05	326.22	92.183	226.4	71.639	-212.35	1069.4	-29.893	-8.6712	833.12	151.38	-127.38	1268.5	-31.454	-96.88	558.42	-203.1	-86.117	1357.6	-83.241	-12.548	808.11	-174.79	64.683	1078.2	-6.0116	-98.311	1349	48.834	-259.38	847.16	38.821	-165.1	202.34	-120.4	-85.931	642.2	-223.32	39.413	588.73	160.32	-151.24	199.74	-59.75	-77.007	27.258	-52.109	-114.89	279.75	-65.091	-57.227	903.05	-249.93	-229.36	75.174	-9.6083	-12.016	560.94	175.07	-25.111	934.06	-311.38	225.78	95.18	72.542	-180.2	121.4	-55.315	-296.58	55.134	-47.276	-132.26	31.485	-26.044	-125.93	910.95	199.72	-174.54	20.768	-112.42	184.99	74.4	33.894	57.794	219.49	121.71	-264.81	854.16	-66.051	-248.84	63.057	-90.285	19.891	402.79	127.11	163.28	49.754	117.18	23.73	27.799	47.653	70.508	67.329	96.944	82.352	84.205	15.971
346	1.73	44.86	1436.4	-50.302	35.409	1424	45.19	19.449	1184.5	-16.966	-69.572	1210.1	154.9	-74.105	1072.8	239.45	-12.493	834.14	295.93	-36.565	1212.8	-211.7	-5.0884	1053.2	-284.77	71.914	862.69	-326.2	104.79	757.32	-343.26	-37.809	638.38	199.97	25.276	485	144.61	-39.996	561.13	-176.21	137.49	775.55	-293.04	14.338	734.49	269.65	160.84	735.29	-339.52	-77.438	945.79	274.01	-179.85	1145.4	79.669	116.74	144.66	64.281	24.208	684.4	327.69	-104.47	475.81	-173.71	96.038	313.56	79.781	-99.655	379.58	-134.48	-29.005	735.29	326.98	102.57	227.26	71.695	-206.27	1068.7	-29.533	-2.1779	832.24	151.5	-121.37	1267.9	-30.907	-92.405	557.91	-202.92	-80.117	1357	-82.532	-6.4371	807.04	-174.38	70.806	1077.5	-6.042	-92.249	1348.3	49.539	-252.96	846.43	40.098	-163.31	202.15	-120.37	-81.13	641.7	-223.05	44.836	586.97	160.77	-149.38	199.38	-59.753	-76.912	27.193	-52.227	-112.15	278.96	-65.108	-50.68	902.46	-249.68	-228.79	75.701	-9.5069	-6.7956	559.71	175.82	-18.762	933.59	-311.15	240.43	99.597	72.675	-179.21	121.37	-55.314	-296.35	56.318	-47.079	-132.17	31.502	-26.043	-119.95	910.02	200.22	-174.59	20.788	-112.27	200.2	77.686	34.108	68.377	219.38	121.78	-258.87	853.81	-64.839	-248.55	63.796	-90.17	24.85	401.67	127.12	179.28	52.202	117.4	40.025	26.303	47.867	85.81	67.298	97.116	97.139	84.591	16.178
